<svg id="svg" version="1.1" xmlns="http://www.w3.org/2000/svg" xmlns:xlink="http://www.w3.org/1999/xlink" width="400" height="272.22222222222223" viewBox="0, 0, 400,272.22222222222223"><g id="svgg"><path id="path0" d="M126.187 54.439 C 126.156 54.471,125.611 54.542,124.977 54.598 C 124.343 54.653,123.200 54.814,122.436 54.957 C 121.672 55.099,120.975 55.196,120.887 55.172 C 120.799 55.148,120.726 55.224,120.726 55.342 C 120.726 55.459,120.492 55.556,120.205 55.556 C 119.918 55.556,119.620 55.658,119.542 55.784 C 119.465 55.909,119.278 55.965,119.128 55.907 C 118.978 55.850,118.743 55.915,118.605 56.053 C 118.467 56.191,118.287 56.308,118.205 56.314 C 118.123 56.320,117.604 56.536,117.052 56.795 C 116.501 57.053,115.992 57.265,115.922 57.265 C 115.851 57.265,115.606 57.440,115.376 57.654 C 115.147 57.868,114.546 58.249,114.042 58.501 C 113.538 58.753,112.650 59.395,112.069 59.928 C 111.489 60.461,110.891 60.897,110.742 60.897 C 110.592 60.897,110.470 61.021,110.470 61.171 C 110.470 61.322,109.965 61.946,109.348 62.560 C 107.850 64.049,107.173 64.838,107.088 65.193 C 107.049 65.355,106.947 65.536,106.861 65.596 C 106.567 65.802,104.689 69.281,104.616 69.753 C 104.598 69.877,104.495 70.119,104.388 70.290 C 104.281 70.461,104.168 70.837,104.138 71.125 C 104.107 71.414,103.993 71.706,103.885 71.775 C 103.776 71.845,103.630 72.286,103.559 72.756 C 103.489 73.226,103.387 73.803,103.334 74.038 C 103.019 75.422,102.950 75.851,102.889 76.816 C 102.700 79.800,102.810 226.175,103.001 226.175 C 103.050 226.175,103.187 226.936,103.290 227.778 C 103.326 228.072,103.427 228.504,103.515 228.739 C 103.602 228.974,103.808 229.527,103.972 229.968 C 104.136 230.409,104.211 230.769,104.139 230.769 C 104.067 230.769,104.104 230.889,104.223 231.036 C 104.341 231.183,104.505 231.616,104.586 231.998 C 104.668 232.380,104.808 232.692,104.897 232.692 C 105.136 232.692,105.581 233.760,105.439 233.990 C 105.372 234.099,105.423 234.188,105.554 234.188 C 105.685 234.188,105.892 234.476,106.015 234.829 C 106.138 235.182,106.325 235.470,106.431 235.470 C 106.537 235.470,106.624 235.614,106.624 235.791 C 106.624 235.967,106.726 236.111,106.850 236.111 C 106.975 236.111,107.023 236.197,106.958 236.302 C 106.893 236.408,106.984 236.549,107.159 236.616 C 107.335 236.684,107.479 236.865,107.479 237.019 C 107.479 237.173,107.671 237.437,107.906 237.607 C 108.141 237.776,108.333 238.005,108.333 238.114 C 108.333 238.224,108.719 238.644,109.190 239.047 C 109.660 239.450,109.991 239.868,109.925 239.975 C 109.858 240.083,109.932 240.171,110.089 240.171 C 110.431 240.171,111.129 240.936,110.951 241.114 C 110.882 241.183,110.986 241.239,111.182 241.239 C 111.378 241.239,111.538 241.335,111.538 241.453 C 111.538 241.571,111.624 241.667,111.730 241.667 C 111.835 241.667,112.229 241.955,112.607 242.308 C 112.984 242.660,113.422 242.949,113.579 242.949 C 113.736 242.949,114.012 243.159,114.192 243.417 C 114.373 243.674,114.584 243.821,114.661 243.743 C 114.739 243.666,115.068 243.792,115.393 244.023 C 115.719 244.255,116.090 244.444,116.219 244.444 C 116.348 244.444,116.453 244.541,116.453 244.658 C 116.453 244.776,116.645 244.872,116.880 244.872 C 117.115 244.872,117.308 244.945,117.308 245.035 C 117.308 245.225,119.230 245.940,119.740 245.940 C 119.930 245.940,120.085 246.044,120.085 246.172 C 120.085 246.299,120.206 246.360,120.353 246.307 C 120.499 246.255,120.804 246.307,121.029 246.423 C 121.254 246.539,121.735 246.660,122.097 246.692 C 122.738 246.749,123.944 246.944,124.867 247.140 C 125.478 247.269,129.382 247.235,130.449 247.091 C 130.919 247.027,131.568 246.965,131.891 246.953 C 132.214 246.941,132.479 246.868,132.479 246.792 C 132.479 246.715,132.599 246.647,132.746 246.641 C 133.316 246.617,134.479 246.341,134.850 246.143 C 135.064 246.028,135.320 245.960,135.418 245.991 C 135.587 246.044,136.743 245.533,138.483 244.636 C 138.907 244.417,139.315 244.301,139.392 244.377 C 139.468 244.453,139.530 244.409,139.530 244.279 C 139.530 244.149,140.100 243.738,140.798 243.366 C 141.495 242.995,142.119 242.550,142.185 242.379 C 142.251 242.207,142.394 242.122,142.504 242.190 C 142.613 242.257,142.909 242.023,143.161 241.669 C 143.413 241.315,143.703 241.026,143.805 241.026 C 144.099 241.026,145.800 239.274,146.734 238.009 C 147.202 237.376,147.742 236.727,147.935 236.567 C 148.128 236.407,148.240 236.202,148.184 236.111 C 148.128 236.020,148.225 235.827,148.400 235.682 C 148.575 235.537,148.721 235.309,148.724 235.177 C 148.727 235.044,149.016 234.558,149.365 234.097 C 149.714 233.635,150.000 233.125,150.000 232.964 C 150.000 232.803,150.163 232.363,150.362 231.987 C 150.745 231.265,150.761 231.218,150.956 230.278 C 151.025 229.949,151.234 229.228,151.423 228.676 C 151.611 228.123,151.797 227.382,151.837 227.030 C 151.877 226.677,151.983 226.052,152.071 225.641 C 152.278 224.679,152.274 77.843,152.067 76.282 C 151.836 74.541,151.757 74.044,151.704 73.985 C 151.639 73.912,151.494 73.318,151.172 71.795 C 151.159 71.736,150.990 71.324,150.796 70.879 C 150.601 70.433,150.415 69.905,150.381 69.703 C 150.348 69.502,150.266 69.290,150.199 69.231 C 150.132 69.172,149.858 68.691,149.590 68.162 C 148.710 66.426,148.084 65.361,147.743 65.020 C 147.558 64.835,147.245 64.433,147.047 64.126 C 146.343 63.033,143.463 60.027,143.288 60.202 C 143.219 60.271,143.162 60.222,143.162 60.093 C 143.162 59.964,142.969 59.796,142.732 59.721 C 142.495 59.646,142.357 59.495,142.424 59.386 C 142.491 59.277,142.353 59.188,142.117 59.188 C 141.881 59.188,141.611 59.068,141.517 58.921 C 141.250 58.503,140.282 57.747,140.491 58.120 C 140.621 58.350,140.551 58.335,140.244 58.066 C 140.009 57.861,139.719 57.692,139.600 57.692 C 139.480 57.692,139.212 57.504,139.004 57.274 C 138.690 56.927,136.695 56.085,136.325 56.143 C 136.266 56.153,136.122 56.082,136.004 55.986 C 135.818 55.833,134.255 55.321,133.654 55.215 C 133.536 55.194,133.392 55.159,133.333 55.137 C 133.154 55.068,132.411 54.916,131.624 54.787 C 130.732 54.641,126.270 54.355,126.187 54.439 M332.595 110.712 C 332.254 110.919,331.878 111.261,331.759 111.473 C 331.549 111.849,331.022 112.460,329.893 113.632 C 329.587 113.950,329.223 114.426,329.084 114.690 C 328.945 114.955,328.690 115.171,328.518 115.171 C 328.346 115.171,328.205 115.276,328.205 115.404 C 328.205 115.704,327.439 116.684,327.308 116.553 C 327.253 116.498,327.072 116.718,326.906 117.041 C 326.739 117.364,326.362 117.869,326.068 118.162 C 325.775 118.456,325.198 119.124,324.786 119.646 C 324.375 120.168,323.774 120.852,323.451 121.165 C 323.128 121.478,322.863 121.831,322.863 121.948 C 322.863 122.066,322.479 122.488,322.010 122.887 C 321.540 123.285,321.155 123.707,321.153 123.825 C 321.152 123.942,320.719 124.463,320.191 124.981 C 319.663 125.500,319.231 125.989,319.231 126.069 C 319.231 126.149,318.870 126.600,318.429 127.071 C 317.359 128.217,316.701 129.023,316.440 129.512 C 316.321 129.733,316.078 129.915,315.899 129.915 C 315.720 129.915,315.632 130.011,315.705 130.128 C 315.778 130.246,315.742 130.342,315.625 130.342 C 315.509 130.342,315.352 130.536,315.277 130.772 C 315.202 131.009,315.063 131.155,314.968 131.096 C 314.873 131.038,314.529 131.397,314.203 131.895 C 313.877 132.392,313.475 132.879,313.310 132.977 C 313.145 133.074,312.920 133.393,312.809 133.684 C 312.698 133.975,312.511 134.154,312.394 134.081 C 312.276 134.009,312.179 134.076,312.179 134.232 C 312.179 134.387,311.750 134.946,311.225 135.473 C 310.700 136.000,310.266 136.528,310.261 136.645 C 310.256 136.763,309.869 137.196,309.402 137.607 C 308.934 138.018,308.550 138.468,308.549 138.606 C 308.548 138.745,308.307 139.047,308.013 139.278 C 307.719 139.509,307.479 139.773,307.479 139.864 C 307.479 139.956,307.315 140.211,307.116 140.431 C 306.545 141.062,306.369 142.705,306.815 143.242 C 306.943 143.396,307.000 143.570,306.942 143.627 C 306.693 143.876,309.392 145.726,310.004 145.726 C 310.128 145.726,310.499 145.837,310.830 145.973 C 311.161 146.108,311.620 146.255,311.850 146.299 C 312.080 146.343,312.331 146.480,312.408 146.605 C 312.485 146.729,312.611 146.816,312.688 146.797 C 313.033 146.712,314.097 147.065,314.326 147.340 C 314.465 147.508,314.668 147.590,314.777 147.522 C 314.887 147.454,315.116 147.515,315.287 147.657 C 315.458 147.799,315.598 147.861,315.598 147.794 C 315.598 147.728,316.127 147.907,316.774 148.193 C 317.420 148.479,317.949 148.651,317.949 148.575 C 317.949 148.500,318.129 148.601,318.349 148.801 C 318.570 149.000,318.834 149.139,318.937 149.110 C 319.220 149.031,320.814 149.605,320.968 149.842 C 321.043 149.957,321.420 150.087,321.807 150.132 C 322.195 150.177,322.732 150.358,323.001 150.535 C 323.270 150.711,323.661 150.888,323.871 150.929 C 324.081 150.970,324.541 151.122,324.893 151.268 C 325.246 151.414,325.712 151.570,325.930 151.613 C 326.148 151.657,326.475 151.817,326.657 151.968 C 326.840 152.120,327.046 152.223,327.116 152.199 C 327.351 152.117,327.179 153.201,326.718 154.701 C 326.592 155.112,326.437 155.735,326.374 156.084 C 326.311 156.434,326.189 156.770,326.103 156.832 C 326.017 156.894,325.956 157.089,325.966 157.265 C 325.977 157.441,325.864 157.946,325.716 158.387 C 325.568 158.827,325.494 159.188,325.551 159.188 C 325.609 159.188,325.536 159.404,325.390 159.669 C 325.244 159.933,325.092 160.438,325.052 160.791 C 325.013 161.143,324.796 162.009,324.570 162.714 C 324.344 163.419,324.057 164.476,323.933 165.064 C 323.808 165.652,323.645 166.277,323.571 166.453 C 323.391 166.876,323.397 166.850,323.206 167.895 C 323.114 168.395,322.961 168.803,322.864 168.803 C 322.768 168.803,322.737 168.985,322.795 169.207 C 322.853 169.428,322.796 169.674,322.668 169.753 C 322.540 169.832,322.436 170.174,322.436 170.513 C 322.436 170.852,322.338 171.189,322.219 171.263 C 322.099 171.337,322.057 171.487,322.125 171.596 C 322.192 171.705,322.140 171.795,322.009 171.795 C 321.877 171.795,321.827 171.888,321.897 172.001 C 321.967 172.115,321.858 172.764,321.654 173.444 C 321.450 174.123,321.303 174.752,321.326 174.840 C 321.349 174.928,321.274 175.000,321.161 175.000 C 321.047 175.000,321.005 175.135,321.068 175.299 C 321.131 175.463,321.084 175.659,320.964 175.733 C 320.844 175.808,320.798 176.005,320.862 176.172 C 320.926 176.339,320.900 176.600,320.805 176.753 C 320.628 177.036,320.506 177.461,320.465 177.938 C 320.452 178.085,320.364 178.205,320.270 178.205 C 320.176 178.205,320.155 178.351,320.223 178.528 C 320.291 178.706,320.237 178.984,320.102 179.147 C 319.967 179.309,319.815 179.716,319.763 180.052 C 319.654 180.765,319.496 181.494,319.434 181.571 C 319.410 181.600,319.367 181.720,319.338 181.838 C 319.308 181.955,319.261 182.123,319.232 182.212 C 319.204 182.300,319.195 182.454,319.213 182.555 C 319.231 182.655,319.134 182.871,318.998 183.035 C 318.862 183.199,318.823 183.333,318.910 183.333 C 318.998 183.333,318.980 183.454,318.870 183.600 C 318.701 183.827,318.666 184.720,318.777 185.989 C 318.791 186.157,318.955 186.445,319.139 186.630 C 319.324 186.815,319.413 186.966,319.336 186.966 C 319.115 186.966,320.562 188.131,320.817 188.158 C 320.943 188.172,321.095 188.208,321.154 188.238 C 322.110 188.736,323.522 188.218,324.876 186.874 C 325.459 186.295,325.798 185.901,325.629 185.998 C 325.459 186.095,325.727 185.752,326.223 185.235 C 327.966 183.420,328.846 182.407,328.846 182.218 C 328.846 182.112,328.922 182.073,329.014 182.130 C 329.107 182.187,329.564 181.703,330.029 181.055 C 330.495 180.406,331.028 179.764,331.214 179.628 C 331.399 179.492,331.723 179.116,331.933 178.793 C 332.142 178.470,332.447 178.205,332.610 178.205 C 332.773 178.205,332.882 178.130,332.853 178.038 C 332.823 177.946,333.112 177.564,333.494 177.190 C 333.876 176.816,334.188 176.451,334.188 176.378 C 334.188 176.306,334.501 175.935,334.882 175.553 C 335.264 175.172,335.718 174.651,335.891 174.396 C 336.064 174.141,336.334 173.932,336.491 173.932 C 336.649 173.932,336.718 173.835,336.645 173.718 C 336.573 173.600,336.594 173.504,336.693 173.504 C 336.793 173.504,337.044 173.216,337.252 172.863 C 337.461 172.511,337.770 172.222,337.939 172.222 C 338.109 172.222,338.248 172.078,338.248 171.902 C 338.248 171.725,338.339 171.581,338.449 171.581 C 338.560 171.581,338.818 171.298,339.023 170.952 C 339.227 170.606,339.488 170.380,339.602 170.451 C 339.716 170.521,339.748 170.479,339.673 170.357 C 339.597 170.235,339.886 169.836,340.315 169.469 C 340.744 169.103,341.016 168.803,340.920 168.803 C 340.823 168.803,341.300 168.275,341.978 167.628 C 342.656 166.982,343.137 166.453,343.047 166.453 C 342.957 166.453,343.234 166.112,343.664 165.695 C 344.093 165.278,344.444 164.845,344.444 164.733 C 344.444 164.621,344.589 164.530,344.765 164.530 C 344.941 164.530,345.063 164.458,345.036 164.370 C 344.978 164.184,345.519 163.498,346.581 162.407 C 346.993 161.985,347.569 161.329,347.863 160.950 C 348.157 160.571,348.518 160.259,348.665 160.258 C 348.811 160.257,348.909 160.184,348.881 160.096 C 348.798 159.830,349.846 158.547,350.147 158.547 C 350.301 158.547,350.427 158.419,350.427 158.263 C 350.427 158.107,351.047 157.337,351.804 156.554 C 352.562 155.770,353.115 155.128,353.033 155.128 C 352.952 155.128,353.342 154.703,353.900 154.183 C 354.458 153.664,354.915 153.129,354.915 152.996 C 354.915 152.862,355.011 152.812,355.128 152.885 C 355.246 152.957,355.342 152.936,355.342 152.836 C 355.342 152.627,356.196 151.554,357.265 150.421 C 358.220 149.408,358.882 148.482,358.814 148.255 C 358.785 148.157,358.840 148.077,358.937 148.077 C 359.034 148.077,359.106 147.741,359.097 147.330 C 359.088 146.919,359.009 146.582,358.921 146.582 C 358.833 146.581,358.761 146.430,358.761 146.245 C 358.761 145.934,358.654 145.771,357.970 145.039 C 357.402 144.433,356.989 144.179,356.237 143.975 C 355.803 143.857,355.264 143.602,355.038 143.408 C 354.793 143.198,354.696 143.172,354.797 143.345 C 354.912 143.541,354.790 143.518,354.418 143.274 C 354.116 143.076,353.816 142.922,353.751 142.932 C 353.554 142.960,353.271 142.876,352.457 142.547 C 349.757 141.456,347.414 140.598,347.131 140.598 C 346.946 140.598,346.795 140.496,346.795 140.372 C 346.795 140.248,346.705 140.201,346.596 140.269 C 346.487 140.336,346.336 140.292,346.261 140.171 C 346.186 140.050,346.035 140.006,345.925 140.073 C 345.816 140.141,345.726 140.089,345.726 139.957 C 345.726 139.826,345.633 139.776,345.518 139.847 C 345.403 139.918,344.867 139.730,344.327 139.428 C 343.787 139.127,343.411 138.985,343.490 139.114 C 343.592 139.279,343.518 139.285,343.238 139.134 C 342.878 138.940,342.147 138.642,341.880 138.581 C 341.822 138.567,341.274 138.374,340.664 138.151 L 339.555 137.745 340.015 137.088 C 340.269 136.727,340.552 136.400,340.644 136.360 C 340.736 136.321,340.812 136.150,340.812 135.980 C 340.812 135.810,340.953 135.616,341.124 135.550 C 341.296 135.485,341.495 135.246,341.567 135.020 C 341.639 134.794,341.787 134.664,341.896 134.732 C 342.005 134.799,342.094 134.716,342.094 134.547 C 342.094 134.378,342.310 134.080,342.575 133.884 C 342.839 133.688,342.911 133.587,342.735 133.660 C 342.521 133.748,342.539 133.691,342.788 133.486 C 342.994 133.317,343.162 133.070,343.162 132.936 C 343.162 132.802,343.261 132.692,343.381 132.692 C 343.501 132.692,343.708 132.452,343.842 132.158 C 343.976 131.864,344.214 131.624,344.372 131.624 C 344.529 131.624,344.658 131.480,344.658 131.303 C 344.658 131.127,344.850 130.791,345.085 130.556 C 345.321 130.321,345.513 130.070,345.513 129.999 C 345.513 129.927,345.754 129.679,346.049 129.447 C 346.344 129.215,346.534 128.942,346.470 128.840 C 346.407 128.738,346.551 128.550,346.789 128.422 C 347.027 128.294,347.222 128.081,347.222 127.948 C 347.222 127.712,347.443 127.437,348.482 126.377 C 348.764 126.090,348.917 125.855,348.823 125.855 C 348.729 125.855,348.999 125.518,349.422 125.107 C 349.846 124.696,350.125 124.358,350.043 124.356 C 349.961 124.354,349.990 124.282,350.109 124.195 C 350.227 124.109,350.593 123.625,350.920 123.120 C 351.248 122.615,351.655 122.148,351.825 122.082 C 351.995 122.017,352.085 121.884,352.025 121.787 C 351.965 121.690,352.108 121.476,352.343 121.312 C 352.577 121.147,352.798 120.828,352.833 120.602 C 352.868 120.377,352.957 120.096,353.031 119.978 C 353.241 119.642,352.330 117.094,352.000 117.094 C 351.840 117.094,351.709 116.998,351.709 116.880 C 351.709 116.763,351.597 116.667,351.459 116.667 C 351.321 116.667,351.052 116.525,350.860 116.351 C 350.669 116.178,350.325 116.007,350.096 115.971 C 349.743 115.917,348.470 115.459,346.688 114.744 C 345.695 114.346,344.758 114.000,344.658 113.995 C 344.599 113.992,344.431 113.913,344.284 113.820 C 344.137 113.726,344.017 113.719,344.017 113.803 C 344.017 113.886,343.849 113.809,343.643 113.630 C 343.437 113.451,343.125 113.301,342.949 113.296 C 342.508 113.284,341.162 112.755,340.998 112.528 C 340.923 112.426,340.560 112.308,340.190 112.265 C 339.820 112.222,339.081 111.943,338.547 111.644 C 338.013 111.346,337.633 111.194,337.702 111.306 C 337.771 111.418,337.543 111.367,337.194 111.193 C 336.846 111.019,336.387 110.842,336.176 110.799 C 335.964 110.757,335.514 110.615,335.176 110.484 C 334.354 110.166,333.351 110.255,332.595 110.712 " stroke="none" fill="#f4bc04" fill-rule="evenodd"></path><path id="path1" d="M109.397 0.074 C 109.335 0.137,109.047 0.237,108.756 0.297 C 108.099 0.432,103.342 2.059,102.463 2.449 C 102.107 2.607,100.692 3.235,99.318 3.845 C 87.037 9.299,75.964 19.336,68.908 31.410 C 68.461 32.174,67.919 33.060,67.702 33.378 C 67.485 33.697,67.308 33.999,67.308 34.051 C 67.308 34.102,66.779 35.257,66.132 36.617 C 65.486 37.977,64.957 39.133,64.957 39.185 C 64.957 39.238,64.750 39.746,64.497 40.313 C 64.243 40.881,64.013 41.442,63.985 41.560 C 63.956 41.677,63.736 42.302,63.495 42.949 C 63.037 44.174,61.566 48.937,61.415 49.679 C 61.367 49.915,61.275 50.347,61.210 50.641 C 60.339 54.589,59.868 58.024,59.642 62.073 C 59.439 65.718,59.560 70.364,59.936 73.397 C 59.980 73.750,60.076 74.567,60.149 75.214 C 61.031 82.978,62.616 85.767,65.598 84.794 C 67.506 84.172,67.955 82.692,67.229 79.419 C 65.786 72.919,65.315 63.865,66.143 58.547 C 66.189 58.253,66.325 57.317,66.445 56.467 C 66.624 55.203,67.101 52.866,67.646 50.588 C 69.700 41.987,74.631 32.524,80.747 25.442 C 83.701 22.021,91.025 15.385,91.845 15.385 C 91.962 15.385,92.090 15.301,92.130 15.200 C 92.227 14.948,95.135 13.032,96.581 12.267 C 97.228 11.925,97.804 11.586,97.863 11.514 C 98.376 10.884,106.051 7.615,109.358 6.618 C 112.674 5.619,113.950 3.914,112.904 1.881 C 112.330 0.765,109.932 -0.471,109.397 0.074 M102.115 23.513 C 100.593 23.926,95.794 27.638,92.501 30.950 C 89.838 33.628,85.684 38.798,85.684 39.433 C 85.684 39.527,85.552 39.755,85.391 39.940 C 84.684 40.755,82.124 45.840,81.726 47.222 C 81.641 47.516,81.500 47.853,81.413 47.970 C 81.288 48.138,80.268 51.205,79.992 52.244 C 79.961 52.361,79.791 52.986,79.615 53.632 C 79.438 54.279,79.238 55.144,79.169 55.556 C 79.101 55.967,78.903 57.065,78.730 57.997 C 78.365 59.953,77.971 64.974,78.101 66.006 C 78.442 68.700,81.481 69.836,83.377 67.977 L 84.169 67.201 84.304 64.850 C 84.834 55.596,87.805 46.532,92.150 40.919 C 92.241 40.801,92.811 40.032,93.417 39.209 C 95.639 36.196,100.102 32.105,103.916 29.586 C 106.657 27.776,106.642 24.178,103.890 23.600 C 102.791 23.369,102.669 23.363,102.115 23.513 M104.701 41.242 C 100.770 42.173,93.341 56.438,95.331 59.233 C 97.206 61.866,100.089 60.688,101.407 56.751 C 102.220 54.320,103.148 52.421,104.548 50.321 C 105.490 48.907,105.495 48.900,107.023 47.214 C 109.795 44.156,108.328 40.383,104.701 41.242 M69.017 117.960 C 60.660 118.922,52.976 125.227,50.540 133.121 C 49.427 136.726,49.505 133.463,49.419 180.342 C 49.337 225.470,49.366 227.245,50.228 230.021 C 50.484 230.844,50.709 231.622,50.728 231.751 C 50.816 232.335,52.870 236.125,53.687 237.209 C 65.442 252.812,89.482 247.513,93.562 228.419 C 93.991 226.411,93.995 225.907,93.942 181.517 L 93.888 136.645 93.433 135.043 C 92.729 132.562,92.622 132.255,91.936 130.747 C 88.018 122.132,78.568 116.860,69.017 117.960 M246.474 139.683 C 244.843 140.076,243.193 141.416,242.452 142.949 L 241.987 143.910 241.987 160.577 L 241.987 177.244 242.477 178.228 C 243.311 179.903,244.596 180.993,246.195 181.381 C 247.803 181.771,269.171 181.717,270.113 181.321 C 272.405 180.357,273.178 177.162,271.979 173.611 L 271.474 172.115 262.553 172.060 L 253.632 172.004 253.632 168.374 L 253.632 164.744 260.563 164.744 C 268.046 164.744,268.337 164.706,269.287 163.609 C 270.454 162.263,270.652 158.692,269.677 156.571 L 269.211 155.556 261.422 155.556 L 253.632 155.556 253.632 152.244 L 253.632 148.932 261.603 148.932 L 269.573 148.932 270.468 148.351 C 272.220 147.215,272.797 143.308,271.605 140.652 L 271.101 139.530 259.001 139.555 C 252.347 139.568,246.709 139.626,246.474 139.683 M370.620 142.257 C 368.797 142.423,365.687 143.697,365.199 144.478 C 364.947 144.883,365.172 145.920,366.769 151.709 C 367.077 152.826,367.365 153.898,367.409 154.092 C 367.681 155.298,369.675 161.098,370.888 164.209 C 373.121 169.942,374.589 172.345,376.751 173.809 L 377.754 174.489 376.966 175.439 C 376.017 176.583,373.532 179.045,372.092 180.267 C 369.242 182.687,369.413 182.488,369.563 183.204 C 370.674 188.521,376.915 190.391,382.059 186.949 C 383.543 185.956,385.277 184.062,386.920 181.641 C 387.444 180.868,388.029 180.057,388.221 179.839 C 388.412 179.621,388.558 179.380,388.545 179.304 C 388.532 179.229,388.636 178.974,388.775 178.739 C 388.914 178.504,389.370 177.735,389.788 177.030 C 391.132 174.763,392.706 171.455,394.718 166.667 C 394.842 166.373,394.959 166.084,394.979 166.026 C 394.999 165.967,395.095 165.726,395.191 165.491 C 398.795 156.722,400.824 147.425,399.706 144.812 C 398.720 142.508,394.939 141.622,391.026 142.778 C 389.281 143.294,388.942 143.561,388.796 144.531 C 388.593 145.887,388.456 146.650,388.351 147.009 C 388.300 147.185,388.198 147.714,388.125 148.184 C 388.052 148.654,387.944 149.116,387.886 149.212 C 387.827 149.307,387.733 149.680,387.676 150.040 C 387.619 150.401,387.193 152.150,386.729 153.927 C 386.264 155.704,385.850 157.303,385.807 157.479 C 385.089 160.435,383.333 166.026,383.122 166.026 C 383.041 166.026,382.765 165.280,382.511 164.370 C 382.256 163.459,382.000 162.545,381.943 162.340 C 381.885 162.134,381.795 161.798,381.742 161.592 C 381.690 161.386,381.443 160.545,381.193 159.722 C 380.943 158.900,380.503 157.409,380.214 156.410 C 379.926 155.411,379.466 153.825,379.192 152.885 C 378.918 151.944,378.388 150.069,378.014 148.718 C 376.608 143.631,374.620 141.894,370.620 142.257 M288.034 147.031 C 282.128 147.698,279.380 149.375,279.119 152.470 C 278.910 154.933,280.911 158.320,281.956 157.275 C 283.579 155.651,293.370 155.139,295.948 156.542 C 297.372 157.317,298.383 159.822,297.276 159.833 C 296.926 159.836,294.125 160.119,292.201 160.345 C 291.731 160.400,290.385 160.551,289.209 160.681 C 281.204 161.562,277.689 164.247,277.176 169.872 C 276.539 176.851,280.529 181.079,288.869 182.262 C 290.404 182.480,295.784 182.570,296.795 182.395 C 297.089 182.344,297.889 182.238,298.573 182.159 C 302.657 181.691,306.643 179.721,308.351 177.327 L 308.868 176.603 308.938 167.415 C 308.987 160.919,308.932 157.788,308.750 156.731 C 307.976 152.239,304.681 148.954,299.655 147.662 C 296.327 146.806,292.071 146.575,288.034 147.031 M191.752 166.563 C 185.975 167.717,180.233 170.980,176.717 175.107 C 176.217 175.694,175.592 176.423,175.329 176.725 C 173.321 179.032,171.621 183.141,169.945 189.732 C 169.185 192.723,168.525 195.231,168.479 195.306 C 168.433 195.381,168.339 195.770,168.272 196.172 C 168.204 196.573,168.000 197.479,167.818 198.184 C 166.285 204.135,164.074 212.815,163.980 213.248 C 163.802 214.067,163.080 216.912,162.515 219.017 C 162.467 219.193,162.189 220.299,161.897 221.474 C 161.604 222.650,161.156 224.428,160.901 225.427 C 160.646 226.426,160.403 227.411,160.360 227.616 C 160.317 227.820,160.042 228.878,159.750 229.966 C 159.457 231.054,159.156 232.329,159.080 232.799 C 159.004 233.269,158.904 233.894,158.858 234.188 C 156.176 251.226,172.578 266.762,190.064 263.748 C 192.295 263.364,197.472 261.614,197.863 261.113 C 197.922 261.038,198.499 260.676,199.145 260.309 C 205.125 256.914,209.601 250.727,211.460 243.287 C 211.756 242.102,212.224 240.219,212.501 239.103 C 212.886 237.552,214.721 230.336,216.142 224.786 C 216.187 224.610,216.461 223.504,216.750 222.329 C 217.039 221.154,217.962 217.500,218.802 214.209 C 219.642 210.919,220.361 208.082,220.400 207.906 C 220.467 207.607,221.292 204.347,221.481 203.632 C 222.190 200.968,223.076 197.086,223.174 196.221 C 223.418 194.062,223.462 191.542,223.281 190.171 C 223.180 189.407,223.052 188.446,222.996 188.034 C 222.503 184.373,219.655 178.318,217.168 175.641 C 216.676 175.112,216.079 174.430,215.839 174.124 C 215.600 173.819,214.703 173.002,213.845 172.308 C 212.988 171.614,212.254 170.975,212.215 170.887 C 212.176 170.799,212.058 170.726,211.952 170.726 C 211.847 170.726,211.216 170.378,210.551 169.953 C 205.422 166.672,197.949 165.324,191.752 166.563 M297.650 170.287 C 297.650 173.399,297.738 173.235,295.853 173.632 C 291.534 174.543,288.478 173.408,288.427 170.874 C 288.385 168.735,290.632 167.880,297.169 167.546 C 297.644 167.522,297.650 167.554,297.650 170.287 M20.059 178.655 C 19.163 178.730,17.913 178.919,17.281 179.076 C 16.649 179.233,16.068 179.366,15.990 179.371 C 15.912 179.376,15.775 179.452,15.687 179.541 C 15.599 179.629,15.365 179.701,15.166 179.701 C 13.157 179.701,7.287 183.970,4.442 187.500 C 3.345 188.862,1.249 193.264,0.974 194.785 C 0.912 195.126,0.742 195.743,0.595 196.154 C 0.223 197.201,0.068 250.262,0.429 253.098 C 2.925 272.693,29.378 279.090,40.324 262.745 C 40.886 261.905,41.402 261.170,41.470 261.111 C 41.683 260.927,43.415 256.759,43.513 256.197 C 43.564 255.903,43.695 255.374,43.806 255.021 C 44.352 253.276,44.446 248.640,44.425 224.679 C 44.399 195.942,44.394 195.854,42.527 191.819 C 42.171 191.051,41.880 190.326,41.880 190.208 C 41.880 190.090,41.805 189.961,41.712 189.922 C 41.620 189.882,41.287 189.408,40.974 188.867 C 37.005 182.022,28.646 177.940,20.059 178.655 M354.701 200.358 C 351.836 200.708,350.457 200.892,350.043 200.979 L 349.551 201.082 349.631 218.970 C 349.675 228.809,349.782 237.196,349.868 237.607 C 351.261 244.244,354.226 248.453,359.615 251.447 C 360.727 252.064,365.171 253.726,365.171 253.524 C 365.171 253.472,365.402 253.517,365.685 253.625 C 366.766 254.036,369.891 254.326,373.002 254.305 C 384.307 254.226,392.201 249.146,394.850 240.244 C 395.586 237.769,395.620 236.906,395.620 220.513 C 395.620 202.098,395.771 203.389,393.384 201.429 C 392.235 200.485,386.841 199.946,384.081 200.499 C 383.846 200.546,383.005 200.704,382.212 200.850 L 380.769 201.117 380.743 218.080 C 380.728 227.409,380.699 235.115,380.679 235.203 C 380.659 235.291,380.566 235.748,380.473 236.218 C 379.293 242.142,371.371 244.321,366.906 239.950 C 364.596 237.688,364.536 237.182,364.474 219.338 C 364.417 202.709,364.500 203.543,362.721 201.865 C 361.418 200.635,357.873 199.969,354.701 200.358 M302.752 200.904 C 298.823 201.576,297.309 206.123,299.266 211.378 L 299.883 213.034 306.344 213.034 L 312.804 213.034 312.866 231.036 L 312.927 249.038 313.586 250.321 C 315.046 253.162,319.075 254.069,325.694 253.048 L 327.778 252.726 327.778 232.880 L 327.778 213.034 333.088 213.034 C 339.601 213.034,340.742 212.721,341.858 210.630 C 343.018 208.457,342.561 202.254,341.155 201.087 C 340.836 200.822,304.253 200.648,302.752 200.904 M248.222 201.179 C 246.748 201.551,244.624 202.573,243.617 203.396 L 242.897 203.985 243.265 205.251 C 243.468 205.947,243.670 206.701,243.713 206.926 C 243.757 207.151,243.929 207.776,244.095 208.315 C 244.261 208.854,244.559 209.872,244.756 210.577 C 245.363 212.752,246.366 216.028,247.132 218.343 C 247.534 219.558,247.863 220.662,247.863 220.796 C 247.863 220.929,248.044 221.521,248.265 222.111 C 248.486 222.701,248.783 223.520,248.924 223.932 C 250.344 228.058,251.225 230.497,252.246 233.120 C 252.909 234.824,253.638 236.747,253.867 237.393 C 254.095 238.040,254.424 238.871,254.598 239.242 C 254.772 239.612,254.915 239.998,254.915 240.100 C 254.915 240.351,257.268 245.763,258.534 248.424 C 259.111 249.636,259.881 250.892,260.284 251.278 C 264.319 255.143,276.044 254.502,278.645 250.275 C 279.864 248.293,284.829 237.182,284.829 236.435 C 284.829 236.351,284.965 235.980,285.131 235.609 C 285.296 235.239,285.668 234.311,285.956 233.547 C 286.245 232.783,286.557 231.966,286.651 231.731 C 286.745 231.496,286.835 231.255,286.851 231.197 C 287.002 230.639,287.242 229.945,287.404 229.594 C 287.636 229.093,290.345 221.033,290.492 220.406 C 290.548 220.171,290.682 219.738,290.792 219.444 C 290.963 218.986,291.175 218.220,291.354 217.415 C 291.380 217.297,291.606 216.538,291.857 215.729 C 293.892 209.152,294.106 204.715,292.467 203.099 C 290.224 200.890,284.925 200.106,281.517 201.480 C 281.282 201.574,280.609 201.835,280.021 202.058 C 279.009 202.443,278.934 202.526,278.598 203.636 C 278.249 204.791,276.329 212.524,276.185 213.355 C 276.145 213.590,275.805 214.971,275.432 216.425 C 275.058 217.878,274.719 219.225,274.678 219.416 C 274.561 219.968,272.701 227.077,272.211 228.846 C 271.967 229.728,271.724 230.663,271.671 230.924 C 271.618 231.185,271.492 231.618,271.390 231.885 C 271.288 232.153,271.191 232.468,271.173 232.585 C 271.156 232.703,271.038 233.183,270.912 233.653 C 270.785 234.123,270.651 234.666,270.614 234.860 C 270.576 235.055,270.392 235.680,270.205 236.250 C 270.018 236.820,269.766 237.695,269.646 238.194 C 269.410 239.177,268.926 239.404,268.737 238.622 C 268.674 238.357,268.366 237.324,268.053 236.325 C 267.740 235.326,267.360 234.076,267.207 233.547 C 267.054 233.018,266.304 230.566,265.539 228.098 C 264.331 224.198,263.565 221.650,261.496 214.637 C 261.253 213.814,260.880 212.564,260.667 211.859 C 260.455 211.154,260.023 209.567,259.707 208.333 C 258.077 201.956,254.348 199.633,248.222 201.179 " stroke="none" fill="#2c3c64" fill-rule="evenodd"></path><path id="path2" d="M127.079 54.428 C 127.458 54.475,128.131 54.476,128.574 54.429 C 129.018 54.383,128.707 54.345,127.885 54.344 C 127.062 54.343,126.699 54.381,127.079 54.428 M139.075 57.339 C 139.237 57.533,139.469 57.692,139.593 57.692 C 139.716 57.692,140.015 57.861,140.257 58.066 C 140.679 58.425,140.685 58.424,140.396 58.052 C 140.231 57.839,139.800 57.511,139.439 57.325 C 138.829 57.010,138.803 57.011,139.075 57.339 M114.361 58.048 C 113.857 58.352,113.486 58.643,113.538 58.695 C 113.590 58.746,114.098 58.496,114.668 58.138 C 115.926 57.348,115.653 57.269,114.361 58.048 M111.676 59.968 C 111.126 60.396,110.720 60.792,110.775 60.846 C 110.870 60.941,112.821 59.437,112.821 59.269 C 112.821 59.104,112.655 59.205,111.676 59.968 M109.442 62.032 C 108.950 62.533,108.547 63.027,108.547 63.128 C 108.547 63.229,108.998 62.868,109.550 62.324 C 110.101 61.780,110.504 61.287,110.444 61.228 C 110.385 61.169,109.934 61.530,109.442 62.032 M145.726 62.430 C 145.726 62.642,146.584 63.530,146.689 63.425 C 146.746 63.368,146.553 63.095,146.260 62.820 C 145.967 62.544,145.726 62.369,145.726 62.430 M146.991 63.996 C 147.323 64.629,147.846 65.260,147.951 65.154 C 148.002 65.103,147.757 64.725,147.406 64.315 C 147.055 63.904,146.868 63.761,146.991 63.996 M106.064 66.506 C 105.867 66.888,105.566 67.441,105.394 67.735 C 105.096 68.247,105.098 68.252,105.443 67.842 C 105.864 67.341,106.681 65.812,106.527 65.812 C 106.469 65.812,106.260 66.124,106.064 66.506 M148.508 66.162 C 148.506 66.296,148.702 66.633,148.944 66.910 C 149.289 67.307,149.336 67.323,149.165 66.987 C 148.794 66.262,148.511 65.907,148.508 66.162 M103.444 72.686 C 103.430 72.882,103.363 73.218,103.296 73.433 C 103.179 73.804,103.186 73.805,103.417 73.444 C 103.551 73.235,103.618 72.898,103.565 72.696 C 103.478 72.365,103.466 72.364,103.444 72.686 M102.670 151.068 C 102.670 191.084,102.694 207.455,102.724 187.447 C 102.754 167.439,102.754 134.698,102.724 114.690 C 102.694 94.682,102.670 111.052,102.670 151.068 M333.464 110.218 C 333.405 110.314,333.639 110.351,333.986 110.300 C 334.332 110.249,334.615 110.171,334.615 110.125 C 334.615 109.963,333.570 110.046,333.464 110.218 M335.363 110.537 C 335.716 110.702,336.044 110.802,336.093 110.760 C 336.247 110.628,336.025 110.509,335.363 110.371 L 334.722 110.238 335.363 110.537 M331.234 111.819 C 330.978 112.091,330.769 112.404,330.769 112.514 C 330.770 112.624,331.010 112.434,331.304 112.093 C 331.597 111.751,331.838 111.439,331.838 111.398 C 331.838 111.236,331.677 111.348,331.234 111.819 M338.774 111.740 C 338.837 111.841,339.180 112.026,339.537 112.150 C 339.894 112.274,340.134 112.293,340.072 112.192 C 340.009 112.091,339.666 111.906,339.309 111.782 C 338.953 111.657,338.712 111.638,338.774 111.740 M329.915 113.355 C 329.639 113.649,329.490 113.889,329.585 113.889 C 329.746 113.889,330.556 113.059,330.556 112.895 C 330.556 112.729,330.392 112.847,329.915 113.355 M328.739 114.744 C 328.527 114.979,328.460 115.171,328.592 115.171 C 328.723 115.171,328.934 114.979,329.060 114.744 C 329.186 114.509,329.252 114.316,329.207 114.316 C 329.163 114.316,328.952 114.509,328.739 114.744 M326.052 117.873 L 325.534 118.438 326.122 118.062 C 326.445 117.855,326.709 117.601,326.709 117.497 C 326.709 117.206,326.612 117.262,326.052 117.873 M352.766 118.587 C 352.949 119.158,353.130 119.538,353.169 119.430 C 353.258 119.184,352.801 117.774,352.590 117.644 C 352.504 117.591,352.583 118.015,352.766 118.587 M324.380 119.847 C 323.781 120.539,323.291 121.179,323.291 121.269 C 323.291 121.423,323.564 121.135,324.616 119.872 C 324.861 119.578,325.206 119.169,325.384 118.964 C 325.562 118.758,325.654 118.590,325.588 118.590 C 325.523 118.590,324.979 119.156,324.380 119.847 M322.329 122.222 C 322.115 122.459,321.988 122.700,322.047 122.759 C 322.106 122.818,322.329 122.672,322.543 122.436 C 322.757 122.199,322.884 121.958,322.825 121.899 C 322.766 121.840,322.543 121.986,322.329 122.222 M351.218 122.703 C 350.466 123.719,350.308 124.139,350.957 123.397 C 351.561 122.706,352.002 122.009,351.835 122.009 C 351.778 122.009,351.500 122.321,351.218 122.703 M320.623 124.299 L 320.248 124.893 320.742 124.418 C 321.014 124.157,321.183 123.890,321.118 123.824 C 321.052 123.758,320.829 123.972,320.623 124.299 M349.286 125.214 C 348.972 125.566,348.793 125.855,348.890 125.855 C 348.986 125.855,349.278 125.566,349.539 125.214 C 349.800 124.861,349.978 124.573,349.935 124.573 C 349.892 124.573,349.600 124.861,349.286 125.214 M318.574 126.631 C 318.080 127.167,318.078 127.179,318.532 126.902 C 318.794 126.743,319.056 126.489,319.113 126.340 C 319.266 125.941,319.152 126.003,318.574 126.631 M317.200 128.206 C 316.986 128.442,316.862 128.686,316.924 128.747 C 316.986 128.809,317.196 128.616,317.391 128.319 C 317.816 127.669,317.731 127.619,317.200 128.206 M316.132 129.487 C 315.920 129.722,315.853 129.915,315.985 129.915 C 316.117 129.915,316.327 129.722,316.453 129.487 C 316.579 129.252,316.645 129.060,316.600 129.060 C 316.556 129.060,316.345 129.252,316.132 129.487 M344.848 130.823 C 344.597 131.301,344.598 131.301,345.054 130.896 C 345.564 130.444,345.610 130.342,345.307 130.342 C 345.193 130.342,344.987 130.558,344.848 130.823 M313.450 132.597 C 313.168 132.898,313.081 133.088,313.257 133.021 C 313.536 132.914,314.227 132.051,314.035 132.051 C 313.996 132.051,313.733 132.297,313.450 132.597 M311.256 135.170 C 310.808 135.688,310.519 136.103,310.615 136.093 C 310.839 136.070,312.267 134.417,312.156 134.310 C 312.110 134.265,311.705 134.652,311.256 135.170 M309.702 136.997 C 309.297 137.453,309.297 137.454,309.776 137.203 C 310.040 137.064,310.256 136.858,310.256 136.745 C 310.256 136.441,310.154 136.488,309.702 136.997 M339.744 137.764 C 339.920 137.831,340.473 138.061,340.972 138.273 C 341.472 138.486,341.880 138.590,341.880 138.504 C 341.880 138.344,339.942 137.593,339.608 137.624 C 339.506 137.633,339.567 137.696,339.744 137.764 M308.016 139.042 L 307.641 139.637 308.135 139.162 C 308.408 138.901,308.576 138.633,308.511 138.568 C 308.445 138.502,308.222 138.716,308.016 139.042 M344.752 139.647 C 345.212 139.991,345.603 140.062,345.422 139.769 C 345.358 139.666,345.088 139.527,344.822 139.459 C 344.355 139.342,344.352 139.348,344.752 139.647 M307.115 140.006 C 306.630 140.631,306.600 140.885,307.063 140.444 C 307.337 140.183,307.509 139.916,307.444 139.851 C 307.379 139.786,307.231 139.856,307.115 140.006 M355.240 143.569 C 355.355 143.681,355.737 143.842,356.090 143.925 C 356.917 144.121,356.731 143.939,355.774 143.616 C 355.365 143.477,355.125 143.456,355.240 143.569 M312.719 146.760 C 312.833 146.865,313.262 147.062,313.670 147.199 C 314.079 147.336,314.319 147.362,314.205 147.257 C 314.090 147.153,313.661 146.955,313.253 146.818 C 312.844 146.681,312.604 146.655,312.719 146.760 M358.528 148.887 C 357.933 149.582,357.763 149.942,358.197 149.590 C 358.539 149.313,359.079 148.504,358.923 148.504 C 358.886 148.504,358.708 148.677,358.528 148.887 M319.132 149.158 C 319.256 149.359,320.719 149.865,320.836 149.748 C 320.880 149.704,320.491 149.515,319.972 149.328 C 319.452 149.141,319.074 149.064,319.132 149.158 M321.894 150.201 C 321.957 150.302,322.300 150.487,322.656 150.611 C 323.013 150.736,323.254 150.755,323.191 150.654 C 323.129 150.552,322.786 150.368,322.429 150.243 C 322.072 150.119,321.831 150.100,321.894 150.201 M357.021 150.588 C 356.230 151.544,356.178 151.751,356.900 151.080 C 357.336 150.675,357.692 150.314,357.692 150.279 C 357.692 150.079,357.288 150.265,357.021 150.588 M353.543 154.493 C 353.201 154.842,353.018 155.128,353.136 155.128 C 353.352 155.128,353.859 154.619,354.147 154.113 C 354.381 153.701,354.223 153.801,353.543 154.493 M351.316 157.035 C 350.827 157.615,350.427 158.148,350.427 158.219 C 350.427 158.290,350.740 157.984,351.122 157.539 C 351.504 157.095,351.960 156.618,352.136 156.481 C 352.313 156.344,352.400 156.175,352.331 156.106 C 352.262 156.037,351.806 156.455,351.316 157.035 M349.271 159.348 L 348.650 160.150 349.432 159.413 C 350.248 158.645,350.318 158.547,350.053 158.547 C 349.965 158.547,349.613 158.908,349.271 159.348 M348.184 160.540 C 348.066 160.688,347.780 161.045,347.547 161.334 C 347.312 161.626,347.477 161.533,347.921 161.123 C 348.359 160.718,348.718 160.357,348.718 160.321 C 348.718 160.159,348.377 160.299,348.184 160.540 M324.590 161.877 C 324.264 163.173,324.431 163.341,324.786 162.073 C 324.936 161.537,325.010 161.050,324.950 160.990 C 324.890 160.930,324.728 161.329,324.590 161.877 M346.566 162.448 C 346.263 162.711,345.883 163.120,345.721 163.355 C 345.559 163.590,345.830 163.402,346.324 162.937 C 347.144 162.167,347.320 161.964,347.169 161.967 C 347.139 161.967,346.868 162.184,346.566 162.448 M323.566 165.722 C 323.443 166.260,323.419 166.621,323.513 166.523 C 323.704 166.326,324.034 164.744,323.885 164.744 C 323.833 164.744,323.689 165.184,323.566 165.722 M343.162 166.132 C 343.014 166.311,342.991 166.453,343.110 166.453 C 343.228 166.453,343.443 166.309,343.590 166.132 C 343.738 165.954,343.761 165.812,343.642 165.812 C 343.525 165.812,343.309 165.956,343.162 166.132 M323.216 167.042 C 323.161 167.131,323.059 167.588,322.989 168.057 C 322.847 169.016,322.950 168.874,323.261 167.682 C 323.458 166.926,323.441 166.678,323.216 167.042 M341.349 168.205 C 340.999 168.534,340.813 168.803,340.938 168.803 C 341.188 168.803,342.221 167.776,342.077 167.672 C 342.028 167.636,341.700 167.876,341.349 168.205 M339.824 169.925 C 338.992 170.875,338.834 171.244,339.601 170.448 C 340.318 169.703,340.502 169.444,340.315 169.444 C 340.277 169.444,340.056 169.661,339.824 169.925 M321.703 172.558 C 321.625 172.871,321.602 173.169,321.652 173.219 C 321.702 173.269,321.808 173.054,321.886 172.741 C 321.965 172.428,321.988 172.131,321.938 172.080 C 321.887 172.030,321.782 172.245,321.703 172.558 M337.306 172.756 C 337.113 173.050,336.989 173.291,337.029 173.291 C 337.069 173.291,337.311 173.050,337.567 172.756 C 337.822 172.463,337.947 172.222,337.844 172.222 C 337.740 172.222,337.498 172.463,337.306 172.756 M335.995 174.207 C 335.464 174.822,335.448 175.064,335.970 174.589 C 336.283 174.304,336.538 174.039,336.538 174.001 C 336.538 173.840,336.201 173.967,335.995 174.207 M334.535 175.881 C 334.042 176.457,334.215 176.629,334.722 176.068 C 334.936 175.832,335.067 175.594,335.012 175.539 C 334.958 175.485,334.743 175.639,334.535 175.881 M331.938 178.793 L 331.562 179.380 332.127 178.862 C 332.738 178.302,332.794 178.205,332.503 178.205 C 332.399 178.205,332.145 178.470,331.938 178.793 M330.953 179.861 C 330.161 180.817,330.110 181.025,330.832 180.353 C 331.268 179.948,331.624 179.588,331.624 179.552 C 331.624 179.353,331.220 179.539,330.953 179.861 M327.870 183.393 C 326.965 184.463,326.774 184.755,327.200 184.421 C 327.588 184.116,328.518 182.906,328.365 182.906 C 328.319 182.906,328.097 183.125,327.870 183.393 M325.728 185.715 C 325.323 186.171,325.323 186.172,325.801 185.921 C 326.066 185.782,326.282 185.576,326.282 185.463 C 326.282 185.159,326.180 185.206,325.728 185.715 M152.191 223.611 C 152.193 224.081,152.237 224.248,152.288 223.983 C 152.339 223.717,152.337 223.332,152.284 223.128 C 152.230 222.924,152.188 223.141,152.191 223.611 M151.274 229.092 C 151.137 229.603,150.973 230.118,150.909 230.235 C 150.831 230.377,150.867 230.377,151.017 230.235 C 151.267 229.998,151.748 228.387,151.611 228.249 C 151.563 228.201,151.412 228.580,151.274 229.092 M103.749 229.968 C 103.829 230.232,103.982 230.543,104.090 230.658 C 104.197 230.772,104.177 230.556,104.045 230.177 C 103.774 229.401,103.524 229.224,103.749 229.968 M104.922 232.919 C 104.918 233.102,105.056 233.438,105.228 233.666 C 105.630 234.198,105.635 233.819,105.235 233.120 C 105.039 232.777,104.927 232.705,104.922 232.919 M149.063 234.501 C 148.873 234.791,148.718 235.096,148.718 235.179 C 148.718 235.262,148.559 235.505,148.364 235.720 C 148.170 235.935,148.106 236.111,148.224 236.111 C 148.341 236.111,148.698 235.630,149.018 235.043 C 149.627 233.923,149.654 233.599,149.063 234.501 M147.515 237.019 C 147.282 237.284,146.826 237.885,146.501 238.355 L 145.909 239.209 146.581 238.462 C 147.342 237.615,148.148 236.538,148.022 236.538 C 147.976 236.538,147.747 236.755,147.515 237.019 M109.081 239.316 C 109.419 239.669,109.791 239.957,109.909 239.957 C 110.027 239.957,109.846 239.669,109.509 239.316 C 109.171 238.964,108.798 238.675,108.681 238.675 C 108.563 238.675,108.743 238.964,109.081 239.316 M110.363 240.598 C 110.576 240.833,110.830 241.026,110.928 241.026 C 111.027 241.026,110.942 240.833,110.741 240.598 C 110.540 240.363,110.285 240.171,110.176 240.171 C 110.066 240.171,110.151 240.363,110.363 240.598 M143.372 241.351 C 142.959 241.849,143.254 241.943,143.695 241.454 C 143.909 241.219,143.984 241.026,143.863 241.026 C 143.741 241.026,143.520 241.172,143.372 241.351 M140.311 243.615 C 139.859 243.853,139.535 244.093,139.590 244.148 C 139.691 244.250,141.239 243.405,141.239 243.248 C 141.239 243.127,141.224 243.133,140.311 243.615 M114.745 243.735 C 114.746 243.832,115.131 244.129,115.600 244.397 C 116.069 244.665,116.453 244.786,116.453 244.664 C 116.453 244.543,116.348 244.444,116.219 244.444 C 116.090 244.444,115.706 244.246,115.364 244.003 C 115.023 243.759,114.744 243.639,114.745 243.735 M138.622 244.567 C 137.823 245.000,137.872 245.181,138.675 244.765 C 139.028 244.583,139.316 244.388,139.316 244.332 C 139.316 244.195,139.293 244.202,138.622 244.567 M127.511 247.377 C 127.893 247.424,128.518 247.424,128.900 247.377 C 129.282 247.329,128.969 247.291,128.205 247.291 C 127.441 247.291,127.129 247.329,127.511 247.377 " stroke="none" fill="#f7b404" fill-rule="evenodd"></path><path id="path3" d="M111.432 0.351 C 112.520 1.316,112.920 1.598,112.501 1.102 C 112.268 0.827,111.884 0.502,111.648 0.381 C 111.411 0.260,111.314 0.247,111.432 0.351 M88.141 10.168 L 87.500 10.719 88.194 10.260 C 88.576 10.007,88.889 9.758,88.889 9.708 C 88.889 9.548,88.798 9.603,88.141 10.168 M82.362 14.797 L 81.517 15.705 82.425 14.860 C 82.925 14.396,83.333 13.987,83.333 13.952 C 83.333 13.791,83.147 13.952,82.362 14.797 M79.487 17.415 C 78.493 18.413,77.774 19.218,77.889 19.203 C 78.099 19.175,81.575 15.598,81.392 15.598 C 81.338 15.598,80.481 16.416,79.487 17.415 M86.632 19.498 L 86.004 20.192 86.699 19.565 C 87.346 18.980,87.491 18.803,87.326 18.803 C 87.290 18.803,86.977 19.116,86.632 19.498 M76.484 20.673 L 75.748 21.474 76.549 20.738 C 76.990 20.333,77.350 19.972,77.350 19.937 C 77.350 19.774,77.170 19.927,76.484 20.673 M83.547 22.329 C 83.028 22.858,82.651 23.291,82.710 23.291 C 82.769 23.291,83.242 22.858,83.761 22.329 C 84.280 21.800,84.656 21.368,84.598 21.368 C 84.539 21.368,84.066 21.800,83.547 22.329 M74.765 22.703 C 74.262 23.320,73.709 23.993,73.537 24.199 C 73.365 24.404,73.277 24.573,73.340 24.573 C 73.404 24.573,74.000 23.900,74.665 23.077 C 75.329 22.254,75.830 21.581,75.777 21.581 C 75.724 21.581,75.269 22.086,74.765 22.703 M81.290 24.840 L 80.662 25.534 81.357 24.907 C 82.004 24.322,82.149 24.145,81.984 24.145 C 81.948 24.145,81.635 24.458,81.290 24.840 M72.925 25.053 C 71.998 26.264,71.510 26.987,71.693 26.876 C 71.945 26.724,73.364 24.786,73.223 24.786 C 73.172 24.786,73.037 24.907,72.925 25.053 M79.890 26.442 C 79.210 27.195,78.769 27.778,78.882 27.778 C 78.930 27.778,79.331 27.345,79.773 26.816 C 80.656 25.761,80.734 25.509,79.890 26.442 M78.389 28.365 C 77.774 29.108,77.514 29.487,77.619 29.487 C 77.679 29.487,77.984 29.151,78.297 28.739 C 78.880 27.976,78.950 27.688,78.389 28.365 M92.457 30.727 C 91.435 31.754,90.598 32.646,90.598 32.710 C 90.598 32.773,91.463 31.961,92.519 30.904 C 93.575 29.848,94.412 28.956,94.378 28.922 C 94.343 28.887,93.479 29.700,92.457 30.727 M77.096 30.075 C 76.719 30.513,76.437 30.983,76.550 30.983 C 76.593 30.983,76.842 30.694,77.103 30.342 C 77.618 29.645,77.613 29.472,77.096 30.075 M67.842 32.906 C 67.660 33.259,67.558 33.547,67.617 33.547 C 67.676 33.547,67.873 33.259,68.056 32.906 C 68.238 32.553,68.339 32.265,68.280 32.265 C 68.221 32.265,68.024 32.553,67.842 32.906 M99.495 32.817 C 99.158 33.113,98.924 33.397,98.976 33.449 C 99.027 33.500,99.345 33.255,99.682 32.904 C 100.425 32.127,100.329 32.083,99.495 32.817 M96.683 35.524 L 94.979 37.286 96.741 35.582 C 98.379 33.999,98.602 33.761,98.446 33.761 C 98.414 33.761,97.620 34.554,96.683 35.524 M73.944 34.963 C 73.693 35.389,73.522 35.773,73.564 35.815 C 73.607 35.858,73.858 35.509,74.121 35.040 C 74.719 33.976,74.566 33.908,73.944 34.963 M94.425 37.981 C 93.510 39.002,93.093 39.530,93.203 39.530 C 93.261 39.530,93.715 39.049,94.210 38.462 C 95.163 37.332,95.318 36.985,94.425 37.981 M71.408 39.861 C 70.764 41.186,70.836 41.371,71.499 40.097 C 71.795 39.527,72.001 39.024,71.957 38.980 C 71.912 38.935,71.665 39.331,71.408 39.861 M102.557 42.682 L 101.389 43.910 102.618 42.742 C 103.759 41.657,103.944 41.453,103.785 41.453 C 103.752 41.453,103.199 42.006,102.557 42.682 M108.597 44.231 C 108.597 44.642,108.641 44.810,108.694 44.605 C 108.748 44.399,108.748 44.063,108.694 43.857 C 108.641 43.651,108.597 43.819,108.597 44.231 M107.051 47.115 C 106.532 47.644,106.156 48.077,106.214 48.077 C 106.273 48.077,106.746 47.644,107.265 47.115 C 107.784 46.587,108.161 46.154,108.102 46.154 C 108.043 46.154,107.570 46.587,107.051 47.115 M81.446 47.425 C 81.321 47.784,81.264 48.077,81.320 48.077 C 81.464 48.077,81.867 46.967,81.761 46.861 C 81.713 46.813,81.571 47.066,81.446 47.425 M94.712 57.372 C 94.714 57.842,94.758 58.009,94.809 57.743 C 94.860 57.477,94.858 57.093,94.805 56.889 C 94.751 56.684,94.710 56.902,94.712 57.372 M59.665 59.829 C 59.665 60.240,59.709 60.409,59.763 60.203 C 59.816 59.997,59.816 59.661,59.763 59.455 C 59.709 59.249,59.665 59.418,59.665 59.829 M99.786 59.793 C 99.302 60.265,99.296 60.291,99.721 60.070 C 99.979 59.936,100.253 59.725,100.330 59.600 C 100.593 59.175,100.321 59.271,99.786 59.793 M97.489 60.617 C 97.695 60.671,98.032 60.671,98.237 60.617 C 98.443 60.564,98.275 60.520,97.863 60.520 C 97.452 60.520,97.284 60.564,97.489 60.617 M59.466 63.248 C 59.466 63.894,59.506 64.159,59.555 63.835 C 59.604 63.512,59.604 62.983,59.555 62.660 C 59.506 62.337,59.466 62.601,59.466 63.248 M78.045 63.568 C 78.048 64.038,78.091 64.206,78.143 63.940 C 78.194 63.674,78.192 63.289,78.138 63.085 C 78.085 62.881,78.043 63.098,78.045 63.568 M78.214 67.062 C 78.203 67.433,79.568 68.804,79.947 68.803 C 80.105 68.802,79.928 68.615,79.553 68.386 C 79.178 68.157,78.725 67.701,78.547 67.372 C 78.368 67.043,78.218 66.903,78.214 67.062 M59.463 68.697 C 59.464 69.284,59.506 69.499,59.555 69.174 C 59.604 68.850,59.603 68.369,59.552 68.106 C 59.501 67.843,59.461 68.109,59.463 68.697 M65.870 70.085 C 65.870 70.614,65.912 70.831,65.963 70.566 C 66.014 70.302,66.014 69.869,65.963 69.605 C 65.912 69.340,65.870 69.557,65.870 70.085 M77.457 118.590 C 77.692 118.691,78.029 118.773,78.205 118.773 C 78.407 118.773,78.368 118.705,78.098 118.590 C 77.863 118.489,77.527 118.406,77.350 118.406 C 77.148 118.406,77.188 118.474,77.457 118.590 M61.271 120.208 C 60.473 120.641,60.521 120.822,61.325 120.406 C 61.677 120.224,61.966 120.029,61.966 119.973 C 61.966 119.836,61.943 119.843,61.271 120.208 M81.838 120.181 C 81.838 120.240,82.126 120.437,82.479 120.620 C 82.831 120.802,83.120 120.903,83.120 120.844 C 83.120 120.786,82.831 120.588,82.479 120.406 C 82.126 120.224,81.838 120.123,81.838 120.181 M83.333 121.007 C 83.333 121.056,83.742 121.367,84.241 121.696 C 84.741 122.025,85.037 122.158,84.899 121.991 C 84.634 121.671,83.333 120.852,83.333 121.007 M87.384 124.199 C 88.270 125.142,88.462 125.312,88.462 125.151 C 88.462 125.117,88.005 124.660,87.447 124.136 L 86.432 123.184 87.384 124.199 M55.662 124.359 C 55.203 124.829,54.919 125.206,55.031 125.196 C 55.227 125.178,56.765 123.504,56.585 123.504 C 56.537 123.504,56.121 123.889,55.662 124.359 M54.038 126.335 C 52.961 127.736,52.932 127.778,53.046 127.778 C 53.105 127.778,53.553 127.249,54.041 126.603 C 54.529 125.956,54.885 125.427,54.833 125.427 C 54.780 125.427,54.422 125.836,54.038 126.335 M90.056 127.511 C 90.386 128.010,90.696 128.419,90.746 128.419 C 90.900 128.419,90.082 127.118,89.761 126.853 C 89.594 126.715,89.727 127.011,90.056 127.511 M49.409 138.034 C 49.409 138.446,49.453 138.614,49.506 138.408 C 49.560 138.202,49.560 137.866,49.506 137.660 C 49.453 137.455,49.409 137.623,49.409 138.034 M253.793 139.476 C 256.995 139.510,262.236 139.510,265.438 139.476 C 268.640 139.443,266.020 139.416,259.615 139.416 C 253.210 139.416,250.590 139.443,253.793 139.476 M243.473 141.293 L 242.628 142.201 243.536 141.356 C 244.381 140.571,244.543 140.385,244.381 140.385 C 244.346 140.385,243.937 140.793,243.473 141.293 M366.613 143.285 C 365.814 143.718,365.863 143.898,366.667 143.483 C 367.019 143.301,367.308 143.106,367.308 143.050 C 367.308 142.913,367.285 142.920,366.613 143.285 M272.283 144.124 C 272.285 144.712,272.326 144.927,272.376 144.602 C 272.425 144.277,272.423 143.796,272.373 143.533 C 272.322 143.271,272.282 143.536,272.283 144.124 M375.214 143.229 C 375.214 143.266,375.526 143.579,375.908 143.924 L 376.603 144.551 375.975 143.857 C 375.390 143.210,375.214 143.064,375.214 143.229 M291.831 146.736 C 292.215 146.784,292.792 146.783,293.113 146.734 C 293.434 146.685,293.120 146.646,292.415 146.647 C 291.709 146.649,291.447 146.688,291.831 146.736 M288.515 146.942 C 288.721 146.996,289.057 146.996,289.263 146.942 C 289.468 146.888,289.300 146.844,288.889 146.844 C 288.478 146.844,288.309 146.888,288.515 146.942 M257.425 149.092 C 259.570 149.126,263.080 149.126,265.224 149.092 C 267.369 149.057,265.614 149.028,261.325 149.028 C 257.035 149.028,255.280 149.057,257.425 149.092 M280.150 149.687 C 279.786 150.102,279.487 150.506,279.487 150.584 C 279.487 150.663,279.560 150.635,279.649 150.524 C 279.738 150.412,280.093 150.008,280.437 149.626 C 280.781 149.244,281.007 148.932,280.938 148.932 C 280.870 148.932,280.515 149.272,280.150 149.687 M305.760 150.908 C 306.646 151.852,306.838 152.021,306.838 151.861 C 306.838 151.826,306.381 151.370,305.823 150.846 L 304.808 149.893 305.760 150.908 M256.303 155.494 C 263.334 155.644,269.395 155.648,269.305 155.502 C 269.250 155.414,265.678 155.363,261.366 155.389 C 257.054 155.414,254.776 155.462,256.303 155.494 M367.765 155.556 C 367.765 155.732,367.848 156.068,367.949 156.303 C 368.064 156.573,368.132 156.612,368.132 156.410 C 368.132 156.234,368.050 155.897,367.949 155.662 C 367.833 155.393,367.765 155.354,367.765 155.556 M290.540 155.710 C 290.919 155.757,291.593 155.758,292.036 155.711 C 292.479 155.665,292.169 155.627,291.346 155.626 C 290.524 155.625,290.161 155.663,290.540 155.710 M280.342 156.838 C 280.593 157.190,280.846 157.479,280.905 157.479 C 280.964 157.479,280.807 157.190,280.556 156.838 C 280.305 156.485,280.051 156.197,279.992 156.197 C 279.934 156.197,280.091 156.485,280.342 156.838 M309.072 166.880 C 309.072 171.757,309.100 173.753,309.134 171.314 C 309.169 168.876,309.169 164.885,309.134 162.447 C 309.100 160.008,309.072 162.003,309.072 166.880 M297.436 158.957 C 297.436 159.299,297.316 159.628,297.169 159.688 C 297.009 159.752,297.052 159.802,297.276 159.812 C 297.564 159.825,297.650 159.657,297.650 159.081 C 297.650 158.670,297.601 158.333,297.543 158.333 C 297.484 158.333,297.436 158.614,297.436 158.957 M270.360 159.936 C 270.362 160.524,270.403 160.739,270.452 160.414 C 270.502 160.089,270.500 159.608,270.450 159.345 C 270.399 159.083,270.359 159.348,270.360 159.936 M269.385 163.464 C 268.977 163.940,268.902 164.199,269.230 163.996 C 269.439 163.867,269.950 163.034,269.820 163.034 C 269.783 163.034,269.587 163.228,269.385 163.464 M256.998 164.903 C 258.908 164.939,262.033 164.939,263.942 164.903 C 265.852 164.868,264.290 164.839,260.470 164.839 C 256.651 164.839,255.088 164.868,256.998 164.903 M186.645 167.937 C 186.175 168.159,185.887 168.342,186.004 168.343 C 186.296 168.345,187.982 167.556,187.714 167.543 C 187.596 167.537,187.115 167.715,186.645 167.937 M393.624 169.133 C 393.266 169.919,393.335 170.086,393.722 169.372 C 393.903 169.039,394.011 168.726,393.962 168.677 C 393.913 168.628,393.761 168.833,393.624 169.133 M288.890 169.337 C 288.614 169.630,288.429 169.906,288.479 169.950 C 288.528 169.993,288.792 169.753,289.065 169.416 C 289.677 168.662,289.569 168.613,288.890 169.337 M276.984 170.406 C 276.986 170.994,277.027 171.209,277.076 170.884 C 277.126 170.559,277.124 170.078,277.073 169.815 C 277.023 169.553,276.983 169.818,276.984 170.406 M182.154 170.222 C 181.064 170.945,180.680 171.327,181.531 170.841 C 182.281 170.413,183.281 169.670,183.116 169.663 C 183.055 169.660,182.622 169.912,182.154 170.222 M276.973 172.222 C 276.973 172.634,277.017 172.802,277.070 172.596 C 277.124 172.390,277.124 172.054,277.070 171.848 C 277.017 171.643,276.973 171.811,276.973 172.222 M288.468 171.738 C 288.464 171.883,288.726 172.272,289.049 172.603 C 289.372 172.934,289.482 173.007,289.292 172.767 C 289.102 172.526,288.841 172.137,288.711 171.902 C 288.581 171.667,288.472 171.593,288.468 171.738 M178.729 172.917 L 177.885 173.825 178.793 172.980 C 179.637 172.195,179.799 172.009,179.637 172.009 C 179.602 172.009,179.194 172.417,178.729 172.917 M375.214 172.756 C 375.612 173.168,375.987 173.504,376.045 173.504 C 376.104 173.504,375.826 173.168,375.427 172.756 C 375.029 172.345,374.654 172.009,374.596 172.009 C 374.537 172.009,374.815 172.345,375.214 172.756 M291.506 173.865 C 291.712 173.919,292.049 173.919,292.254 173.865 C 292.460 173.811,292.292 173.768,291.880 173.768 C 291.469 173.768,291.301 173.811,291.506 173.865 M176.589 175.053 L 175.962 175.748 176.656 175.120 C 177.038 174.775,177.350 174.463,177.350 174.426 C 177.350 174.261,177.174 174.406,176.589 175.053 M216.667 175.107 C 217.065 175.518,217.440 175.855,217.498 175.855 C 217.557 175.855,217.279 175.518,216.880 175.107 C 216.482 174.696,216.107 174.359,216.049 174.359 C 215.990 174.359,216.268 174.696,216.667 175.107 M389.423 177.564 C 389.241 177.917,389.140 178.205,389.198 178.205 C 389.257 178.205,389.454 177.917,389.637 177.564 C 389.819 177.212,389.920 176.923,389.861 176.923 C 389.803 176.923,389.605 177.212,389.423 177.564 M218.990 178.098 C 219.105 178.333,219.356 178.718,219.547 178.953 L 219.895 179.380 219.686 178.953 C 219.570 178.718,219.319 178.333,219.128 178.098 L 218.780 177.671 218.990 178.098 M279.808 178.632 C 280.267 179.103,280.690 179.487,280.749 179.487 C 280.808 179.487,280.480 179.103,280.021 178.632 C 279.562 178.162,279.139 177.778,279.080 177.778 C 279.021 177.778,279.349 178.162,279.808 178.632 M306.931 178.900 L 306.303 179.594 306.998 178.966 C 307.645 178.381,307.791 178.205,307.625 178.205 C 307.589 178.205,307.276 178.518,306.931 178.900 M20.462 178.570 C 20.728 178.621,21.112 178.619,21.317 178.566 C 21.521 178.512,21.303 178.470,20.833 178.473 C 20.363 178.475,20.196 178.519,20.462 178.570 M23.453 178.570 C 23.719 178.621,24.104 178.619,24.308 178.566 C 24.512 178.512,24.295 178.470,23.825 178.473 C 23.355 178.475,23.188 178.519,23.453 178.570 M271.247 180.609 L 270.620 181.303 271.314 180.676 C 271.961 180.091,272.107 179.915,271.942 179.915 C 271.905 179.915,271.592 180.227,271.247 180.609 M9.936 182.177 L 9.295 182.728 9.989 182.268 C 10.371 182.015,10.684 181.767,10.684 181.716 C 10.684 181.556,10.593 181.612,9.936 182.177 M172.043 182.167 C 171.685 182.953,171.754 183.121,172.141 182.406 C 172.321 182.073,172.429 181.760,172.380 181.711 C 172.332 181.662,172.180 181.867,172.043 182.167 M291.934 182.634 C 292.374 182.680,293.096 182.680,293.536 182.634 C 293.977 182.588,293.616 182.550,292.735 182.550 C 291.854 182.550,291.493 182.588,291.934 182.634 M385.061 184.056 L 384.545 184.722 385.157 184.141 C 385.493 183.821,385.725 183.522,385.672 183.475 C 385.620 183.428,385.345 183.689,385.061 184.056 M38.141 185.256 C 38.600 185.726,39.024 186.111,39.082 186.111 C 39.141 186.111,38.814 185.726,38.355 185.256 C 37.896 184.786,37.472 184.402,37.413 184.402 C 37.355 184.402,37.682 184.786,38.141 185.256 M383.749 185.630 L 383.013 186.432 383.814 185.695 C 384.560 185.010,384.714 184.829,384.550 184.829 C 384.515 184.829,384.154 185.190,383.749 185.630 M5.544 186.058 L 4.808 186.859 5.609 186.123 C 6.355 185.437,6.509 185.256,6.345 185.256 C 6.310 185.256,5.949 185.617,5.544 186.058 M371.359 186.806 C 372.244 187.749,372.436 187.919,372.436 187.758 C 372.436 187.724,371.979 187.267,371.421 186.743 L 370.406 185.791 371.359 186.806 M381.881 187.057 C 380.889 187.759,380.749 187.960,381.587 187.480 C 381.978 187.256,382.398 186.952,382.521 186.806 C 382.837 186.428,382.689 186.486,381.881 187.057 M375.801 188.826 C 376.066 188.877,376.498 188.877,376.763 188.826 C 377.027 188.775,376.811 188.733,376.282 188.733 C 375.753 188.733,375.537 188.775,375.801 188.826 M1.958 191.569 C 1.600 192.355,1.668 192.522,2.055 191.808 C 2.236 191.474,2.344 191.162,2.295 191.113 C 2.246 191.064,2.094 191.269,1.958 191.569 M223.340 194.444 C 223.340 194.856,223.384 195.024,223.438 194.818 C 223.492 194.613,223.492 194.276,223.438 194.071 C 223.384 193.865,223.340 194.033,223.340 194.444 M0.103 225.321 C 0.103 239.071,0.129 244.664,0.160 237.751 C 0.192 230.837,0.192 219.587,0.160 212.751 C 0.129 205.914,0.103 211.571,0.103 225.321 M250.694 200.794 C 251.018 200.843,251.546 200.843,251.870 200.794 C 252.193 200.745,251.928 200.705,251.282 200.705 C 250.636 200.705,250.371 200.745,250.694 200.794 M285.420 200.796 C 285.805 200.843,286.381 200.842,286.703 200.794 C 287.024 200.745,286.709 200.706,286.004 200.707 C 285.299 200.708,285.036 200.748,285.420 200.796 M322.309 200.801 C 335.781 200.842,340.958 200.924,341.170 201.100 C 341.402 201.292,341.435 201.269,341.328 200.992 C 341.205 200.670,339.662 200.645,322.466 200.693 L 303.739 200.745 322.309 200.801 M290.385 201.576 C 290.385 201.626,290.727 201.869,291.145 202.116 C 291.564 202.363,291.846 202.468,291.773 202.349 C 291.630 202.118,290.385 201.424,290.385 201.576 M299.775 202.297 L 299.038 203.098 299.840 202.362 C 300.586 201.677,300.739 201.496,300.576 201.496 C 300.540 201.496,300.180 201.856,299.775 202.297 M257.168 202.783 C 257.515 203.197,257.972 203.774,258.182 204.065 C 258.551 204.574,258.552 204.568,258.184 203.890 C 257.974 203.503,257.518 202.926,257.169 202.608 L 256.536 202.030 257.168 202.783 M293.651 206.731 C 293.652 207.318,293.694 207.533,293.743 207.209 C 293.792 206.884,293.791 206.403,293.740 206.140 C 293.689 205.877,293.649 206.143,293.651 206.731 M298.361 207.158 C 298.362 207.981,298.400 208.291,298.447 207.848 C 298.493 207.404,298.492 206.731,298.445 206.352 C 298.398 205.973,298.360 206.335,298.361 207.158 M364.631 220.513 C 364.631 228.446,364.658 231.691,364.690 227.724 C 364.723 223.758,364.723 217.268,364.690 213.301 C 364.658 209.335,364.631 212.580,364.631 220.513 M342.575 207.799 C 342.578 208.269,342.621 208.436,342.672 208.171 C 342.724 207.905,342.722 207.520,342.668 207.316 C 342.615 207.112,342.573 207.329,342.575 207.799 M395.827 220.513 C 395.827 227.975,395.854 231.028,395.887 227.297 C 395.919 223.566,395.919 217.460,395.887 213.729 C 395.854 209.997,395.827 213.050,395.827 220.513 M244.047 208.547 C 244.047 208.723,244.130 209.060,244.231 209.295 C 244.347 209.564,244.414 209.604,244.414 209.402 C 244.414 209.225,244.332 208.889,244.231 208.654 C 244.115 208.384,244.047 208.345,244.047 208.547 M303.152 213.194 C 304.944 213.230,307.877 213.230,309.669 213.194 C 311.461 213.158,309.995 213.129,306.410 213.129 C 302.826 213.129,301.360 213.158,303.152 213.194 M327.830 232.959 L 327.882 252.885 327.938 233.070 L 327.994 213.256 333.067 213.194 L 338.141 213.133 332.959 213.084 L 327.778 213.034 327.830 232.959 M289.768 222.457 C 289.637 222.833,289.537 223.247,289.545 223.376 C 289.553 223.505,289.698 223.235,289.866 222.775 C 290.035 222.315,290.135 221.902,290.090 221.856 C 290.044 221.810,289.899 222.081,289.768 222.457 M289.127 224.380 C 288.996 224.756,288.896 225.170,288.904 225.299 C 288.912 225.428,289.057 225.158,289.225 224.698 C 289.394 224.238,289.494 223.825,289.449 223.779 C 289.403 223.733,289.258 224.004,289.127 224.380 M49.413 225.962 C 49.415 226.432,49.459 226.599,49.510 226.333 C 49.561 226.067,49.559 225.683,49.506 225.478 C 49.452 225.274,49.410 225.491,49.413 225.962 M158.597 236.325 C 158.597 236.736,158.641 236.904,158.694 236.699 C 158.748 236.493,158.748 236.157,158.694 235.951 C 158.641 235.745,158.597 235.913,158.597 236.325 M253.328 236.325 C 253.406 236.619,253.560 237.003,253.669 237.179 C 253.806 237.402,253.823 237.337,253.724 236.966 C 253.645 236.672,253.492 236.287,253.383 236.111 C 253.245 235.888,253.228 235.954,253.328 236.325 M158.611 238.248 C 158.611 238.894,158.651 239.159,158.700 238.835 C 158.749 238.512,158.749 237.983,158.700 237.660 C 158.651 237.337,158.611 237.601,158.611 238.248 M55.333 239.370 C 55.857 239.928,56.314 240.385,56.348 240.385 C 56.508 240.385,56.339 240.193,55.395 239.307 L 54.380 238.355 55.333 239.370 M378.302 240.011 L 377.457 240.919 378.365 240.074 C 379.210 239.289,379.372 239.103,379.210 239.103 C 379.175 239.103,378.766 239.511,378.302 240.011 M283.154 240.501 C 282.796 241.286,282.865 241.454,283.252 240.740 C 283.433 240.406,283.540 240.093,283.492 240.044 C 283.443 239.995,283.291 240.201,283.154 240.501 M86.418 240.865 L 85.791 241.560 86.485 240.932 C 87.132 240.347,87.278 240.171,87.113 240.171 C 87.076 240.171,86.763 240.483,86.418 240.865 M56.624 240.669 C 56.624 240.728,57.009 241.081,57.479 241.453 C 57.949 241.825,58.333 242.082,58.333 242.023 C 58.333 241.964,57.949 241.612,57.479 241.239 C 57.009 240.867,56.624 240.610,56.624 240.669 M372.492 242.247 C 372.817 242.296,373.298 242.295,373.561 242.244 C 373.823 242.194,373.558 242.154,372.970 242.155 C 372.382 242.157,372.167 242.198,372.492 242.247 M393.735 243.065 C 393.233 244.118,393.304 244.297,393.828 243.302 C 394.067 242.851,394.224 242.443,394.178 242.397 C 394.131 242.351,393.932 242.652,393.735 243.065 M81.998 243.818 C 81.557 244.051,81.197 244.289,81.197 244.347 C 81.197 244.405,81.581 244.257,82.051 244.017 C 82.521 243.777,82.906 243.535,82.906 243.479 C 82.906 243.339,82.904 243.339,81.998 243.818 M60.897 243.695 C 60.897 243.841,62.206 244.489,62.303 244.392 C 62.350 244.345,62.052 244.147,61.643 243.952 C 61.233 243.757,60.897 243.641,60.897 243.695 M281.231 244.988 C 280.873 245.774,280.942 245.941,281.329 245.227 C 281.509 244.893,281.617 244.580,281.569 244.531 C 281.520 244.483,281.368 244.688,281.231 244.988 M390.506 247.814 C 389.692 248.722,389.435 249.081,389.937 248.611 C 390.776 247.824,392.225 246.149,392.059 246.158 C 392.019 246.160,391.321 246.905,390.506 247.814 M71.314 246.518 C 71.579 246.569,72.011 246.569,72.276 246.518 C 72.540 246.467,72.324 246.426,71.795 246.426 C 71.266 246.426,71.050 246.467,71.314 246.518 M354.229 247.329 C 354.351 247.564,354.771 248.045,355.163 248.397 L 355.876 249.038 355.129 248.183 C 354.718 247.713,354.297 247.233,354.195 247.115 C 354.092 246.998,354.107 247.094,354.229 247.329 M160.897 248.370 C 160.897 248.601,161.746 250.214,161.868 250.214 C 161.926 250.214,161.768 249.805,161.517 249.306 C 161.021 248.323,160.897 248.136,160.897 248.370 M258.547 248.798 C 258.547 249.060,259.386 250.606,259.600 250.738 C 259.713 250.808,259.553 250.406,259.247 249.845 C 258.612 248.685,258.547 248.588,258.547 248.798 M278.319 250.766 C 278.120 251.070,277.994 251.356,278.039 251.401 C 278.084 251.446,278.289 251.197,278.496 250.848 C 278.956 250.069,278.819 250.005,278.319 250.766 M44.289 251.496 C 44.289 252.025,44.331 252.241,44.382 251.976 C 44.432 251.712,44.432 251.279,44.382 251.015 C 44.331 250.751,44.289 250.967,44.289 251.496 M315.141 252.338 C 315.419 252.580,315.747 252.778,315.871 252.778 C 316.134 252.778,316.121 252.767,315.278 252.273 L 314.637 251.898 315.141 252.338 M206.504 253.776 C 206.175 254.207,206.014 254.493,206.148 254.410 C 206.421 254.241,207.346 252.991,207.198 252.991 C 207.145 252.991,206.833 253.344,206.504 253.776 M164.316 254.127 C 164.316 254.163,164.629 254.476,165.011 254.821 L 165.705 255.449 165.078 254.754 C 164.493 254.107,164.316 253.962,164.316 254.127 M373.668 254.428 C 374.052 254.476,374.629 254.475,374.950 254.426 C 375.271 254.377,374.957 254.339,374.252 254.340 C 373.547 254.341,373.284 254.381,373.668 254.428 M166.346 256.410 C 166.805 256.880,167.229 257.265,167.288 257.265 C 167.346 257.265,167.019 256.880,166.560 256.410 C 166.101 255.940,165.677 255.556,165.618 255.556 C 165.560 255.556,165.887 255.940,166.346 256.410 M203.632 256.944 C 203.113 257.473,202.737 257.906,202.796 257.906 C 202.854 257.906,203.327 257.473,203.846 256.944 C 204.365 256.416,204.742 255.983,204.683 255.983 C 204.624 255.983,204.152 256.416,203.632 256.944 M172.650 261.002 C 172.650 261.148,173.958 261.797,174.056 261.699 C 174.102 261.653,173.805 261.455,173.395 261.260 C 172.985 261.064,172.650 260.948,172.650 261.002 M37.821 265.705 C 36.945 266.587,36.277 267.308,36.335 267.308 C 36.394 267.308,37.159 266.587,38.034 265.705 C 38.910 264.824,39.578 264.103,39.519 264.103 C 39.460 264.103,38.696 264.824,37.821 265.705 M184.462 264.260 C 185.023 264.304,185.889 264.304,186.385 264.259 C 186.881 264.214,186.421 264.178,185.363 264.178 C 184.306 264.179,183.900 264.216,184.462 264.260 M6.410 265.705 C 6.809 266.116,7.183 266.453,7.242 266.453 C 7.301 266.453,7.023 266.116,6.624 265.705 C 6.225 265.294,5.851 264.957,5.792 264.957 C 5.733 264.957,6.012 265.294,6.410 265.705 M32.051 269.872 C 31.640 270.097,31.380 270.285,31.474 270.290 C 31.701 270.302,32.906 269.675,32.906 269.546 C 32.906 269.406,32.893 269.411,32.051 269.872 M12.821 270.192 C 13.114 270.360,13.451 270.498,13.568 270.498 C 13.686 270.498,13.542 270.360,13.248 270.192 C 12.954 270.024,12.618 269.887,12.500 269.887 C 12.382 269.887,12.527 270.024,12.821 270.192 " stroke="none" fill="#2c3c5c" fill-rule="evenodd"></path><path id="path4" d="" stroke="none" fill="#608034" fill-rule="evenodd"></path></g></svg>